<svg width="17" height="18" viewBox="0 0 17 18" fill="none" xmlns="http://www.w3.org/2000/svg">
<g clip-path="url(#clip0_2:12)">
<path d="M12.3469 0.941162H4.63136C2.12026 0.941162 0.0773926 2.98403 0.0773926 5.49513V13.2108C0.0773926 15.7218 2.12026 17.7647 4.63136 17.7647H12.3471C14.858 17.7647 16.9009 15.7218 16.9009 13.2108V5.49513C16.9009 2.98403 14.858 0.941162 12.3469 0.941162V0.941162ZM15.9146 13.2108C15.9146 15.178 14.3142 16.7784 12.3469 16.7784H4.63136C2.66409 16.7784 1.06366 15.178 1.06366 13.2108V5.49513C1.06366 3.52786 2.66409 1.92743 4.63136 1.92743H12.3471C14.3142 1.92743 15.9146 3.52786 15.9146 5.49513V13.2108Z" fill="black"/>
<path d="M8.48915 4.75293C5.95263 4.75293 3.8891 6.81646 3.8891 9.35298C3.8891 11.8895 5.95263 13.953 8.48915 13.953C11.0257 13.953 13.0892 11.8895 13.0892 9.35298C13.0892 6.81646 11.0257 4.75293 8.48915 4.75293ZM8.48915 12.9668C6.49659 12.9668 4.87536 11.3457 4.87536 9.35298C4.87536 7.36042 6.49659 5.73919 8.48915 5.73919C10.4818 5.73919 12.1029 7.36042 12.1029 9.35298C12.1029 11.3457 10.4818 12.9668 8.48915 12.9668Z" fill="black"/>
<path d="M13.1992 3.11914C12.4496 3.11914 11.8399 3.72895 11.8399 4.4784C11.8399 5.22798 12.4496 5.83779 13.1992 5.83779C13.9488 5.83779 14.5586 5.22798 14.5586 4.4784C14.5586 3.72882 13.9488 3.11914 13.1992 3.11914ZM13.1992 4.85139C12.9936 4.85139 12.8262 4.68402 12.8262 4.4784C12.8262 4.27265 12.9936 4.10541 13.1992 4.10541C13.4049 4.10541 13.5723 4.27265 13.5723 4.4784C13.5723 4.68402 13.4049 4.85139 13.1992 4.85139Z" fill="black"/>
</g>
<defs>
<clipPath id="clip0_2:12">
<rect width="16.8235" height="16.8235" fill="white" transform="translate(0.0773926 0.941162)"/>
</clipPath>
</defs>
</svg>
