<svg width="15" height="15" viewBox="0 0 15 15" fill="none" xmlns="http://www.w3.org/2000/svg">
<g clip-path="url(#clip0_2:26)">
<path d="M14.9933 14.4707V14.4701H14.9969V9.24927C14.9969 6.69522 14.447 4.72778 11.4612 4.72778C10.0258 4.72778 9.06254 5.51547 8.66929 6.26223H8.62777V4.96622H5.79672V14.4701H8.74462V9.76411C8.74462 8.52505 8.9795 7.32691 10.5139 7.32691C12.0259 7.32691 12.0484 8.74095 12.0484 9.84359V14.4707H14.9933Z" fill="black"/>
<path d="M0.996429 4.9668H3.94788V14.4706H0.996429V4.9668Z" fill="black"/>
<path d="M2.47099 0.235352C1.52731 0.235352 0.761566 1.00109 0.761566 1.94477C0.761566 2.88845 1.52731 3.67021 2.47099 3.67021C3.41467 3.67021 4.18041 2.88845 4.18041 1.94477C4.17982 1.00109 3.41408 0.235352 2.47099 0.235352Z" fill="black"/>
</g>
<defs>
<clipPath id="clip0_2:26">
<rect width="14.2353" height="14.2353" fill="white" transform="translate(0.761566 0.235352)"/>
</clipPath>
</defs>
</svg>
