<svg width="24" height="24" viewBox="0 0 24 24" fill="#000" xmlns="http://www.w3.org/2000/svg">
<g clip-path="url(#clip0_2:126)">
<path d="M23.725 11.3364C23.7248 11.3362 23.7245 11.3358 23.7242 11.3356L18.8256 6.46056C18.4586 6.09535 17.865 6.09671 17.4997 6.46375C17.1345 6.83073 17.1359 7.42431 17.5028 7.78956L20.7918 11.0626H0.9375C0.419719 11.0626 0 11.4823 0 12.0001C0 12.5178 0.419719 12.9376 0.9375 12.9376H20.7917L17.5029 16.2106C17.1359 16.5758 17.1345 17.1694 17.4998 17.5364C17.865 17.9034 18.4587 17.9047 18.8256 17.5396L23.7242 12.6646C23.7245 12.6643 23.7248 12.6639 23.7251 12.6637C24.0923 12.2972 24.0911 11.7017 23.725 11.3364Z" fill="#000"/>
</g>
<defs>
<clipPath id="clip0_2:126">
<rect width="24" height="24" fill="white"/>
</clipPath>
</defs>
</svg>
