<svg width="18" height="18" viewBox="0 0 18 18" fill="none" xmlns="http://www.w3.org/2000/svg">
<g clip-path="url(#clip0_2:19)">
<path d="M17.4489 3.43071C16.8233 3.70515 16.1567 3.88705 15.4616 3.97537C16.1766 3.54848 16.7224 2.87764 16.9789 2.06906C16.3123 2.46651 15.5763 2.74726 14.7919 2.90393C14.1589 2.22993 13.2567 1.8125 12.2725 1.8125C10.3631 1.8125 8.82582 3.36237 8.82582 5.26237C8.82582 5.53576 8.84895 5.79862 8.90573 6.04887C6.03837 5.90903 3.50117 4.53476 1.79673 2.44128C1.49917 2.95755 1.32462 3.54848 1.32462 4.18462C1.32462 5.37909 1.93973 6.43792 2.85662 7.05093C2.30249 7.04041 1.75888 6.87954 1.29834 6.62613C1.29834 6.63665 1.29834 6.65032 1.29834 6.66398C1.29834 8.34003 2.49386 9.73218 4.0616 10.0529C3.78086 10.1296 3.47488 10.1664 3.15734 10.1664C2.93653 10.1664 2.71362 10.1538 2.50437 10.1076C2.95125 11.4734 4.21932 12.4776 5.72713 12.5102C4.55369 13.4281 3.06376 13.9812 1.4508 13.9812C1.16796 13.9812 0.896676 13.9686 0.625397 13.9339C2.15318 14.9191 3.96382 15.4816 5.9164 15.4816C12.2631 15.4816 15.7329 10.2243 15.7329 5.66719C15.7329 5.51473 15.7277 5.36752 15.7203 5.22137C16.4048 4.73559 16.98 4.12889 17.4489 3.43071Z" fill="black"/>
</g>
<defs>
<clipPath id="clip0_2:19">
<rect width="16.8235" height="16.8235" fill="white" transform="translate(0.625397 0.235352)"/>
</clipPath>
</defs>
</svg>
